<?xml version="1.0" encoding="utf-8"?>
<!-- Generator: Adobe Illustrator 12.0.1, SVG Export Plug-In . SVG Version: 6.00 Build 51448)  -->
<!DOCTYPE svg PUBLIC "-//W3C//DTD SVG 1.1//EN" "http://www.w3.org/Graphics/SVG/1.1/DTD/svg11.dtd" [
	<!ENTITY ns_svg "http://www.w3.org/2000/svg">
	<!ENTITY ns_xlink "http://www.w3.org/1999/xlink">
]>
<svg  version="1.1" id="Layer_1" xmlns="&ns_svg;" xmlns:xlink="&ns_xlink;" width="148.968" height="84.047"
	 viewBox="0 0 148.968 84.047" overflow="visible" enable-background="new 0 0 148.968 84.047" xml:space="preserve">
<path d="M81.173,69.943c1.434,8.42-2.328,12.004-6.27,12.361c-0.896,0.538-3.94,2.329-6.27,1.256
	c-1.792,0.715-4.121,0.896-7.345-1.256c-1.433,0.18-6.449,0.18-8.958-3.045c-2.149,0-4.658-2.508-5.553-5.732
	c-0.896-0.18-5.375-2.866-5.733-4.479c-1.074,0.181-3.583-0.356-4.479-1.791c-1.611,0.358-5.195-1.075-6.09-2.508
	c-1.074,0.178-4.657-1.074-5.911-2.33c0,0-3.224,0.539-5.016-1.433c-1.074,0.356-3.224,0.179-5.375-1.612
	c-0.716,0.179-3.224-0.358-4.837-1.792c-1.252-0.178-15.048,0.18-6.627-10.032c8.42-10.212,29.199-18.095,35.469-19.707
	c6.271-1.612,18.99-5.555,28.307-2.149c1.432-0.896,5.375-0.179,5.375-0.179L81.173,69.943z"/>
<path fill="#DC4228" d="M30.833,53.643c0.537-1.793-0.537-3.942-2.866-4.838c0-0.537,0.717-3.762-0.897-3.939
	c0,0-1.252-1.254,0.539-4.838c3.083-6.165,14.689-8.778,18.451-7.167c3.226-4.12,5.913-0.537,7.704-1.791
	c1.791-1.254,4.658-1.791,7.524-0.358c0,0,1.075,0.358-2.508,2.33c0.896-0.539,4.479-0.358,2.688,1.433
	c-5.733,5.733-13.259,17.557-16.304,22.752c-3.045,5.194-4.299,1.434-1.432-3.941c-2.867,4.838-5.555,7.704-6.271,3.404
	C33.878,59.553,30.474,54.715,30.833,53.643z"/>
<path fill="#DC4228" d="M21.696,45.759c-1.791-0.896-7.344,3.046-6.269,6.271C16.502,55.254,23.31,46.833,21.696,45.759z"/>
<path fill="#DC4228" d="M15.965,45.938c0-1.972-3.395-2.147-4.121,1.972C11.306,50.954,15.785,47.73,15.965,45.938z"/>
<path fill="#DC4228" d="M22.414,49.342c3.045-3.227,5.194-2.509,2.687,1.434c-1.376,2.162-1.611,2.508-3.044,2.148
	C20.623,52.566,20.085,51.67,22.414,49.342z"/>
<path fill="#DC4228" d="M27.787,50.417c1.434,0,2.149,1.254,1.971,3.047c-0.179,1.791-2.508,1.612-1.971,0.179
	C24.921,55.791,25.997,50.775,27.787,50.417z"/>
<path fill="#DC4228" d="M70.067,41.817c-2.866-4.12-4.838-4.3-7.167-1.612c-2.328,2.688-11.342,14.943-15.228,23.827
	c-1.252,2.866,1.613,4.301,2.867,1.612c-0.18,3.764,3.94,8.241,5.732,3.584c0,5.553,5.554,6.447,5.912,3.045
	c0.717,4.121,7.523,3.224,6.809,0.717c2.149,3.582,6.985,1.611,5.374-1.434c2.33,3.225,6.092-0.537,5.375-2.509
	C79.022,67.077,72.216,45.042,70.067,41.817z"/>
<path fill="#ECD516" d="M21.876,38.234c2.597-1.613,3.492-0.357,1.522,1.254C21.428,41.1,20.444,39.13,21.876,38.234z"/>
<path fill="#ECD516" d="M24.383,41.28c-2.687,1.435-1.332,5.06,0.18,2.508C25.997,41.369,25.458,40.921,24.383,41.28z"/>
<path d="M35.49,33.799c1.701-0.537,1.21,0.446,0.806,0.851c-1.791,1.793-9.942,9.227-9.583,7.347c0.357-1.882-1.164,3.313,0,2.776
	c1.164-0.539,3.078-3.479,6-5.644c6.898-5.105,5.958-6.227,6.809-6.45C40.07,32.537,35.222,33.084,35.49,33.799z"/>
<path d="M59.855,33.486c1.252-0.447,2.238,0.113,1.836,0.785c1.522-0.133,1.006-3.561-0.785-3.785
	c0.404,0.224,0.113,0.69-1.119,1.276c-1.367,0.648-7.1,1.545-9.159,3.873c-2.061,2.33-7.436,2.151-9.942,4.391
	c-2.365,2.11-4.57-0.09-11.601,6.942c-1.074,1.074-0.985,0-0.985-0.179c0-0.18-1.007,2.463-0.582,2.754
	c0.424,0.291,2.262,0.516,1.858,0.112c-0.403-0.403-0.426-0.896,0.381-1.704c0.806-0.805,4.659-4.881,7.792-5.417
	c3.136-0.537-2.06,4.926-3.85,7.075c-1.793,2.149-2.778,2.644-3.047,1.883c-0.269-0.762-0.312,2.777-0.312,3.539
	c0,0.76,2.687,2.104,2.104,1.478c-0.583-0.627-0.896-1.612,0.088-3.674c0.985-2.06,5.822-6.358,6.897-8.868
	c1.075-2.508,3.314-3.673,5.017-4.119c1.701-0.45,4.031-0.987,2.955,1.074c-1.074,2.061-5.285,7.076-7.167,10.303
	c-1.881,3.223-3.357,6-4.567,6.268c-1.208,0.271,0.146,1.094,0.94,1.435c1.881,0.808,2.867-0.089,2.285-0.089
	s-1.613-1.523,2.328-6.988c3.941-5.463,5.643-7.701,7.077-9.852c1.433-2.149,2.418-3.854,3.942-5.286
	C53.763,35.277,58.466,33.844,59.855,33.486z"/>
<path d="M68.655,39.958c-0.985-0.896-1.068,0.434-1.187,1.321c-0.358,2.687-1.166,9.317,0.179,11.825
	c1.344,2.508,4.569,8.957,5.376,11.822c0.805,2.867,2.505,7.749,3.582,7.84c1.076,0.088,1.345,1.028-0.537,2.014
	c-1.881,0.986-2.129,0.232-1.702-0.805c0.313-0.761-0.269-2.062-0.537-2.779c-0.27-0.717-1.165-3.045-1.881-5.911
	c-0.717-2.866-4.032-9.495-4.928-11.017c-0.896-1.522-1.881,0.537-1.971,1.432c-0.09,0.896,1.881,6.449,2.598,10.57
	s1.748,7.256,2.194,7.66c0.449,0.403,0.494,0.984-0.269,1.12c-0.762,0.134-2.418,0.179-1.658-0.271
	c0.762-0.446-0.537-3.403-0.985-5.732c-0.447-2.328-1.881-9.314-2.506-11.105c-0.628-1.793-0.897,0.806-1.255,1.97
	s-1.254,6.36-0.806,9.854c0.447,3.492,0.403,4.029,1.164,4.613c0.762,0.582,0.135,0.985-1.344,0.985
	c-1.478,0-2.088-0.772-1.164-1.255c1.03-0.539,0.269-2.285,0.178-4.256c-0.09-1.97-0.715-7.524,1.613-13.524
	c1.438-3.707,2.329-5.196,2.776-9.315c0.448-4.121,1.254-8.601,0.225-8.601c-1.03,0,0.539-1.209,2.104-0.672
	C69.483,38.279,69.416,40.63,68.655,39.958z"/>
<path d="M61.107,42.354c-1.433,1.792-1.252,2.51-1.252,3.046c0,0.537,1.252,2.33,0.537,4.3c-0.717,1.971-2.24,6.718-2.867,13.614
	c-0.627,6.898-0.627,9.271,0.18,9.988c0.805,0.717-1.838,0.941-3.092,0.135c-1.254-0.808-0.761-1.971-0.09-2.193
	c0.672-0.225,1.301-1.031,1.344-2.777c0.045-1.747,0.492-5.242,1.209-9.99c0.717-4.748,3.315-9.494,2.42-10.658
	s-1.829-0.729-2.42,0.178c-0.582,0.896-0.269-2.641,1.211-4.299C59.765,42.041,61.557,41.774,61.107,42.354z"/>
<path d="M56.54,48.714c-0.896,1.435-2.866,6.45-3.045,9.495c-0.18,3.046-1.702,5.645-2.239,7.436
	c-0.539,1.793-0.493,1.928-0.358,2.33c0.135,0.403-0.717,0.627-1.479,0.043c-0.76-0.58-0.179-0.896,0.313-1.297
	c0.494-0.402,0.673-1.435,1.344-3.045c0.672-1.613,1.03-2.822,0.492-3.764c-0.536-0.939-1.209-1.344-1.746-0.357
	c-0.537,0.984,0.404-3.447,2.196-5.869C53.808,51.27,56.45,47.952,56.54,48.714z"/>
<path fill="#DC4228" d="M52.778,57.09c0.09-1.209,0.761-2.599,0.896-3.226c0.135-0.625-0.224-0.224-0.94,0.94
	c-0.716,1.166-1.478,2.106-0.985,2.912C52.241,58.523,52.643,58.255,52.778,57.09z"/>
<path d="M53.36,59.105c-0.179,1.254,3.18,3,3.36,2.194c0.179-0.807,1.031-0.536,0.941,0.582c-0.09,1.119,3.447,2.373,3.537,1.567
	c0.09-0.805,1.21,0.269,1.166,1.076c-0.045,0.805,4.21,2.461,4.03,1.564c-0.178-0.896,1.209-0.043,1.39,1.031
	c0.178,1.076,5.508,2.553,5.105,1.345c-0.403-1.21,1.164-0.135,1.567,0.851c0.404,0.985,5.6,0.627,5.018-1.209
	s0.672-0.18,0.939,1.119c0.27,1.299-1.031,1.953-0.762,1.299c0.357-0.873-0.539-0.672-1.791-0.402
	c-1.254,0.27-3.226-0.225-2.688,0.852c0.537,1.074-1.233,0.516-1.546-0.426s-1.679-0.918-2.934-1.23
	c-1.252-0.313-2.731-1.075-2.506-0.226c0.224,0.851-1.121,0.226-1.346-0.761c-0.224-0.984-1.433-1.075-2.642-1.612
	c-1.209-0.538-1.926-0.853-1.971,0s-1.074,0.246-1.121-0.696c-0.043-0.938-1.164-1.051-1.881-1.364
	c-0.642-0.28-1.746-0.964-1.791-0.291c-0.045,0.672-1.164,0.157-1.053-0.783c0.112-0.94-1.052-0.94-1.588-1.255
	c-0.539-0.312-1.836-1.254-2.106-0.537c-0.269,0.717-0.47-0.984-0.291-1.746S53.45,58.455,53.36,59.105z"/>
<g>
	<path fill="#ECD516" d="M16.68,38.592c-2.674,1.459-1.612,3.046,0.18,1.791C18.651,39.13,18.651,37.517,16.68,38.592z"/>
</g>
<g>
	<path fill="#ECD516" d="M10.769,42.534c-2.675,1.458-1.613,3.046,0.18,1.791C12.74,43.07,12.74,41.458,10.769,42.534z"/>
</g>
<g>
	<path fill="#ECD516" d="M5.717,46.661c-2.489,1.755-1.252,3.21,0.382,1.76C7.734,46.969,7.551,45.369,5.717,46.661z"/>
</g>
<g>
	<path fill="#ECD516" d="M24.205,58.121c1.678-2.239,3.403-1.434,3.045,1.074c-0.358,2.509-0.716-0.627-1.343-0.896
		C25.28,58.03,23.399,59.195,24.205,58.121z"/>
</g>
<g>
	<path fill="#ECD516" d="M30.653,60.718c1.68-2.239,3.405-1.434,3.047,1.074c-0.359,2.508-0.717-0.627-1.344-0.896
		C31.728,60.628,29.846,61.792,30.653,60.718z"/>
</g>
<g>
	<path fill="#ECD516" d="M37.103,63.136c1.522-2.347,3.298-1.659,3.111,0.867c-0.189,2.527-0.757-0.577-1.401-0.803
		S36.371,64.266,37.103,63.136z"/>
</g>
<g>
	<path fill="#ECD516" d="M17.964,56.744c1.311-2.247,2.991-1.686,2.928,0.667c-0.064,2.356-0.729-0.502-1.336-0.685
		C18.947,56.547,17.334,57.822,17.964,56.744z"/>
</g>
<g>
	<path fill="#ECD516" d="M12.86,55.833c0.985-2.181,2.577-1.829,2.743,0.332c0.167,2.161-0.715-0.39-1.29-0.498
		C13.74,55.559,12.386,56.881,12.86,55.833z"/>
</g>
<g>
	<path fill="#ECD516" d="M7.935,54.125c0.908-2.007,2.372-1.686,2.525,0.305c0.154,1.989-0.659-0.357-1.185-0.459
		C8.747,53.873,7.5,55.089,7.935,54.125z"/>
</g>
<path fill="#ECD516" d="M2.796,51.133c-0.896,0.717-1.163,2.33,0.09,2.598c1.256,0.27,1.166-0.715,0.807-1.521
	C3.335,51.402,3.425,50.506,2.796,51.133z"/>
<g>
	<path fill="#ECD516" d="M46.568,70.145c1.341-1.23,2.346-0.511,1.818,1.051c-0.528,1.56-0.382-0.486-0.751-0.733
		C47.265,70.215,45.924,70.736,46.568,70.145z"/>
</g>
<g>
	<path fill="#ECD516" d="M52.604,75.426c0.89-1.587,2.07-1.217,2.055,0.432c-0.015,1.646-0.516-0.342-0.943-0.463
		C53.29,75.275,52.176,76.188,52.604,75.426z"/>
</g>
<g>
	<path fill="#ECD516" d="M60.057,78.336c0.352-1.785,1.587-1.801,2.087-0.23c0.498,1.569-0.597-0.164-1.041-0.145
		C60.661,77.98,59.888,79.193,60.057,78.336z"/>
</g>
<g>
	<path fill="#ECD516" d="M66.549,78.996c-0.222-1.807,0.948-2.205,1.911-0.87c0.963,1.336-0.618,0.03-1.032,0.188
		C67.013,78.469,66.656,79.861,66.549,78.996z"/>
</g>
<g>
	<path fill="#ECD516" d="M73.217,78.707c-0.774-1.646,0.213-2.391,1.545-1.422c1.33,0.971-0.578,0.221-0.924,0.5
		C73.493,78.062,73.589,79.497,73.217,78.707z"/>
</g>
<g>
	<path fill="#ECD516" d="M78.233,75.84c-0.774-1.646,0.213-2.392,1.545-1.422c1.332,0.971-0.577,0.221-0.924,0.5
		C78.509,75.195,78.604,76.63,78.233,75.84z"/>
</g>
<g>
	<path fill="#ECD516" d="M8.529,57.135c1.076,0,1.254,0.27,1.703,0.627c0.447,0.358,0.179-0.537-0.448-0.896
		C9.156,56.508,8.083,57.09,8.529,57.135z"/>
</g>
<g>
	<path fill="#ECD516" d="M13.367,59.016c1.076,0,1.254,0.27,1.701,0.627c0.448,0.358,0.18-0.537-0.447-0.896
		S12.918,58.973,13.367,59.016z"/>
</g>
<g>
	<path fill="#ECD516" d="M18.614,60.741c1.071-0.07,1.269,0.187,1.74,0.515c0.469,0.327,0.143-0.547-0.507-0.865
		C19.199,60.075,18.164,60.729,18.614,60.741z"/>
</g>
<g>
	<path fill="#ECD516" d="M23.675,62.042c1.073-0.072,1.269,0.185,1.739,0.513c0.469,0.329,0.144-0.549-0.506-0.863
		C24.257,61.374,23.225,62.025,23.675,62.042z"/>
</g>
<g>
	<path fill="#ECD516" d="M29.624,64.35c1.073,0.057,1.239,0.334,1.667,0.717c0.427,0.381,0.207-0.527-0.4-0.918
		C30.282,63.756,29.178,64.28,29.624,64.35z"/>
</g>
<g>
	<path fill="#ECD516" d="M35.75,66.809c1.073,0.058,1.238,0.336,1.665,0.717c0.429,0.383,0.209-0.526-0.398-0.918
		S35.306,66.74,35.75,66.809z"/>
</g>
<g>
	<path fill="#ECD516" d="M46.14,72.814c0.996,0.401,1.062,0.721,1.344,1.22c0.281,0.498,0.366-0.433-0.081-1
		C46.955,72.468,45.742,72.605,46.14,72.814z"/>
</g>
<path fill="#ECD516" d="M41.312,68.243c-0.09,0.491,0.09,1.254,0.315,1.254C41.849,69.497,41.582,67.794,41.312,68.243z"/>
<g>
	<path fill="#ECD516" d="M51.734,78.633c1.027,0.317,1.117,0.628,1.44,1.104c0.321,0.477,0.33-0.459-0.162-0.987
		C52.518,78.219,51.32,78.458,51.734,78.633z"/>
</g>
<g>
	<path fill="#ECD516" d="M60.455,81.889c1.076-0.048,1.265,0.213,1.729,0.551c0.463,0.338,0.156-0.543-0.486-0.873
		C61.055,81.234,60.005,81.864,60.455,81.889z"/>
</g>
<g>
	<path fill="#ECD516" d="M67.716,83.38c1.017-0.346,1.272-0.149,1.812,0.045c0.54,0.195-0.003-0.565-0.712-0.702
		C68.106,82.584,67.277,83.482,67.716,83.38z"/>
</g>
<g>
	<path fill="#ECD516" d="M73.873,82.535c0.765-0.755,1.081-0.688,1.651-0.747s-0.25-0.509-0.948-0.324S73.521,82.818,73.873,82.535z
		"/>
</g>
<path fill="#ECD516" d="M80.547,77.201c0.136-0.449-0.18-0.584-0.493-0.225C79.74,77.334,80.413,77.604,80.547,77.201z"/>
<path fill="#ECD516" d="M3.247,55.971c0.625,0.537,1.164,0,0.537-0.271C3.156,55.434,2.708,55.701,3.247,55.971z"/>
<path d="M81.916,69.782c2.209,8.253,7.122,9.94,10.854,8.622c1.037,0.115,4.554,0.474,6.223-1.475
	c1.927-0.097,4.119-0.904,6.152-4.203c1.377-0.435,5.938-2.527,6.873-6.504c1.955-0.896,3.188-4.223,2.656-7.527
	c0.74-0.535,3.691-4.844,3.346-6.461c1.049-0.285,3.105-1.818,3.324-3.495c1.613-0.347,4.273-3.144,4.489-4.819
	c1.051-0.285,3.786-2.919,4.401-4.581c0,0,3.156-0.856,3.961-3.395c1.127-0.123,3.007-1.183,4.213-3.707
	c0.729-0.136,2.781-1.671,3.65-3.645c1.064-0.686,13.754-6.114,1.842-11.885s-34.088-4.271-40.459-3.121s-19.577,2.871-26.625,9.849
	c-1.676-0.216-4.959,2.079-4.959,2.079L81.916,69.782z"/>
<path fill="#DC4228" d="M120.876,33.975c-1.236-1.405-1.154-3.807,0.586-5.594c-0.222-0.489-2.22-3.12-0.83-3.955
	c0,0,0.618-1.664-2.505-4.173c-5.37-4.319-17.012-1.853-19.76,1.18c-4.648-2.4-5.597,1.977-7.749,1.584
	c-2.152-0.392-4.979,0.315-6.988,2.812c0,0-0.828,0.774,3.25,1.071c-1.038-0.115-4.219,1.541-1.843,2.423
	c7.601,2.82,19.368,10.431,24.304,13.882c4.934,3.453,4.504-0.489-0.342-4.18c4.623,3.202,8.261,4.688,7.119,0.479
	C120.571,40.617,121.649,34.801,120.876,33.975z"/>
<path fill="#DC4228" d="M125.892,23c1.258-1.562,7.949-0.295,8.314,3.084C134.575,29.463,124.875,24.648,125.892,23z"/>
<path fill="#DC4228" d="M131.179,20.772c-0.82-1.792,2.189-3.367,4.565,0.072C137.504,23.388,132.089,22.325,131.179,20.772z"/>
<path fill="#DC4228" d="M126.735,26.554c-4.113-1.66-5.769-0.113-1.846,2.424c2.156,1.392,2.514,1.606,3.666,0.684
	C129.71,28.739,129.824,27.701,126.735,26.554z"/>
<path fill="#DC4228" d="M122.298,29.772c-1.304,0.599-1.431,2.037-0.521,3.591c0.91,1.553,2.951,0.419,1.867-0.658
	C127.146,33.462,124.078,29.352,122.298,29.772z"/>
<path fill="#DC4228" d="M80.284,39.586c0.888-4.941,2.604-5.927,5.841-4.455c3.237,1.472,16.54,8.854,23.776,15.311
	c2.334,2.082,0.326,4.58-1.932,2.658c1.73,3.348-0.148,9.135-3.718,5.647c2.313,5.049-2.36,8.178-4.106,5.233
	c1.068,4.043-5.492,6.068-5.887,3.49c-0.46,4.152-5.679,4.379-5.484,0.938c-0.771,3.902-5.76,2.053-5.931-0.037
	C82.674,66.281,79.674,43.413,80.284,39.586z"/>
<path fill="#ECD516" d="M122.592,16.235c-3.032-0.383-3.323,1.131-0.86,1.774C124.194,18.653,124.269,16.452,122.592,16.235z"/>
<path fill="#ECD516" d="M121.583,20.049c3.041,0.182,3.32,4.042,0.884,2.354C120.155,20.802,120.457,20.17,121.583,20.049z"/>
<path d="M108.368,17.881c-1.771,0.222-0.915,0.911-0.378,1.108c2.376,0.882,12.885,4.241,11.774,2.681
	c-1.109-1.56,2.44,2.527,1.158,2.524c-1.281-0.003-4.248-1.879-7.809-2.626c-8.397-1.766-8.01-3.176-8.875-3.024
	C103.679,18.642,108.313,17.118,108.368,17.881z"/>
<path d="M86.091,27.756c-1.326,0.115-1.988,1.035-1.341,1.478c-1.44,0.513-2.401-2.816-0.867-3.767
	c-0.271,0.372,0.188,0.673,1.552,0.692c1.512,0.021,7.097-1.554,9.939-0.297c2.844,1.259,7.652-1.146,10.868-0.156
	c3.028,0.932,4.114-1.988,13.437,1.473c1.428,0.528,0.896-0.411,0.822-0.574c-0.075-0.164,1.941,1.819,1.678,2.262
	c-0.267,0.441-1.841,1.41-1.644,0.876c0.198-0.534,0.014-0.992-1.054-1.389c-1.071-0.396-6.271-2.495-9.344-1.676
	c-3.074,0.819,3.926,3.619,6.451,4.825c2.523,1.208,3.625,1.245,3.553,0.441c-0.074-0.806,1.442,2.393,1.76,3.084
	c0.316,0.693-1.565,3.034-1.297,2.221c0.268-0.811,0.142-1.839-1.613-3.3c-1.754-1.462-7.942-3.354-9.967-5.185
	c-2.021-1.832-4.543-1.956-6.276-1.653c-1.733,0.301-4.074,0.784-2.238,2.209c1.837,1.424,7.755,4.229,10.81,6.375
	c3.054,2.146,5.554,4.055,6.767,3.795c1.212-0.261,0.323,1.054-0.258,1.694c-1.374,1.518-2.644,1.115-2.112,0.872
	c0.528-0.243,0.83-2.057-5.031-5.379c-5.86-3.324-8.342-4.648-10.541-6.006c-2.199-1.356-3.805-2.493-5.785-3.159
	C92.375,26.844,87.503,27.502,86.091,27.756z"/>
<path d="M80.791,37.308c0.521-1.226,1.151-0.053,1.629,0.707c1.447,2.292,4.944,7.98,4.769,10.823
	c-0.176,2.839-0.416,10.045,0.047,12.986c0.459,2.941,0.949,8.088,0.009,8.619c-0.938,0.529-0.791,1.496,1.329,1.605
	c2.123,0.113,2.033-0.676,1.212-1.441c-0.604-0.561-0.615-1.983-0.669-2.748c-0.055-0.762-0.211-3.252-0.756-6.158
	c-0.543-2.903-0.295-10.311-0.117-12.067c0.18-1.758,1.936-0.297,2.389,0.48c0.456,0.776,0.979,6.646,2.047,10.69
	c1.067,4.045,1.437,7.323,1.198,7.875c-0.237,0.553-0.036,1.102,0.711,0.908c0.749-0.197,2.274-0.847,1.396-0.938
	c-0.879-0.09-0.933-3.316-1.494-5.621c-0.565-2.305-2.176-9.252-2.352-11.143c-0.178-1.889,1.149,0.36,1.961,1.269
	c0.812,0.909,3.791,5.259,4.842,8.62c1.047,3.36,1.313,3.832,0.865,4.68c-0.451,0.846,0.287,0.95,1.631,0.333
	s1.576-1.571,0.537-1.625c-1.162-0.06-1.197-1.964-1.938-3.792c-0.739-1.828-2.485-7.139-7.104-11.622
	c-2.853-2.771-4.283-3.751-6.408-7.311c-2.125-3.559-4.726-7.293-3.789-7.723c0.938-0.43-0.992-0.874-2.193,0.268
	C79.337,36.126,80.379,38.237,80.791,37.308z"/>
<path d="M88.649,36.339c2.05,1.03,2.185,1.758,2.41,2.245c0.226,0.489-0.17,2.64,1.305,4.133c1.472,1.492,4.836,5.172,8.281,11.18
	s4.437,8.166,4.002,9.152c-0.434,0.989,2.062,0.09,2.865-1.165c0.805-1.256-0.129-2.108-0.834-2.032
	c-0.703,0.076-1.609-0.396-2.379-1.963c-0.768-1.57-2.632-4.558-5.262-8.574c-2.633-4.018-6.973-7.249-6.645-8.682
	c0.328-1.433,1.358-1.425,2.272-0.844c0.903,0.57-0.856-2.515-2.892-3.405C89.739,35.494,88,35.996,88.649,36.339z"/>
<path d="M95.455,40.215c1.41,0.928,5.293,4.668,6.728,7.36c1.433,2.694,3.898,4.419,5.137,5.823c1.234,1.404,1.25,1.545,1.296,1.968
	c0.045,0.423,0.913,0.271,1.362-0.575c0.447-0.846-0.211-0.889-0.828-1.05c-0.616-0.16-1.209-1.024-2.491-2.208
	c-1.282-1.186-2.112-2.135-2.019-3.215c0.096-1.078,0.541-1.727,1.44-1.055c0.897,0.672-1.806-2.967-4.44-4.416
	C99.002,41.396,95.217,39.486,95.455,40.215z"/>
<path fill="#DC4228" d="M102.367,46.258c-0.587-1.061-1.776-2.043-2.159-2.558c-0.384-0.515,0.109-0.298,1.247,0.462
	c1.137,0.76,2.221,1.297,2.108,2.236C103.453,47.337,102.974,47.262,102.367,46.258z"/>
<path d="M102.677,48.333c0.686,1.067-1.639,4.054-2.139,3.396c-0.498-0.658-1.159-0.058-0.609,0.922
	c0.547,0.98-2.146,3.596-2.563,2.9c-0.419-0.695-0.987,0.748-0.609,1.463c0.375,0.713-2.8,3.992-3.012,3.104
	c-0.21-0.89-1.117,0.465-0.831,1.515c0.285,1.053-3.943,4.619-4.081,3.352s-1.115,0.365-1.069,1.427
	c0.045,1.063-4.828,2.903-5.064,0.993c-0.237-1.911-0.686,0.117-0.387,1.41c0.295,1.291,1.75,1.346,1.232,0.861
	c-0.691-0.644,0.208-0.835,1.459-1.111c1.252-0.279,2.838-1.549,2.797-0.35c-0.039,1.202,1.335-0.045,1.227-1.029
	c-0.105-0.985,1.146-1.535,2.154-2.344c1.008-0.808,2.034-2.117,2.187-1.248c0.151,0.865,1.11-0.264,0.901-1.253
	c-0.205-0.989,0.855-1.575,1.731-2.567c0.874-0.992,1.396-1.576,1.791-0.82c0.396,0.753,1.08-0.227,0.729-1.1
	c-0.352-0.873,0.619-1.44,1.139-2.026c0.468-0.521,1.188-1.603,1.508-1.011c0.32,0.593,1.125-0.344,0.63-1.15
	c-0.495-0.809,0.563-1.294,0.922-1.803c0.357-0.51,1.146-1.907,1.689-1.367c0.543,0.539,0.017-1.09-0.464-1.708
	C103.465,48.17,102.325,47.781,102.677,48.333z"/>
<g>
	<path fill="#ECD516" d="M127.464,14.394c3.038,0.212,2.736,2.096,0.585,1.703S125.226,14.238,127.464,14.394z"/>
</g>
<g>
	<path fill="#ECD516" d="M134.481,15.511c3.039,0.212,2.733,2.096,0.582,1.703C132.914,16.821,132.242,15.356,134.481,15.511z"/>
</g>
<g>
	<path fill="#ECD516" d="M140.795,17.156c2.994,0.557,2.478,2.396,0.386,1.759C139.088,18.279,138.588,16.745,140.795,17.156z"/>
</g>
<g>
	<path fill="#ECD516" d="M128.769,35.28c-2.461-1.333-3.693,0.117-2.322,2.249c1.373,2.128,0.391-0.87,0.849-1.376
		C127.754,35.648,129.948,35.92,128.769,35.28z"/>
</g>
<g>
	<path fill="#ECD516" d="M123.989,40.332c-2.461-1.335-3.691,0.114-2.32,2.246c1.372,2.13,0.393-0.869,0.848-1.376
		C122.974,40.698,125.169,40.973,123.989,40.332z"/>
</g>
<g>
	<path fill="#ECD516" d="M119.135,45.219c-2.364-1.499-3.69-0.134-2.466,2.086c1.225,2.219,0.447-0.843,0.938-1.314
		C118.099,45.516,120.271,45.938,119.135,45.219z"/>
</g>
<g>
	<path fill="#ECD516" d="M133.867,31.428c-2.13-1.497-3.423-0.288-2.384,1.827c1.039,2.115,0.453-0.761,0.93-1.18
		C132.89,31.658,134.89,32.145,133.867,31.428z"/>
</g>
<g>
	<path fill="#ECD516" d="M138.126,28.472c-1.807-1.571-3.104-0.589-2.355,1.444c0.75,2.034,0.488-0.652,0.965-0.99
		C137.211,28.588,138.994,29.226,138.126,28.472z"/>
</g>
<g>
	<path fill="#ECD516" d="M141.888,24.866c-1.662-1.446-2.854-0.542-2.166,1.329c0.688,1.872,0.449-0.601,0.887-0.911
		C141.047,24.974,142.687,25.56,141.888,24.866z"/>
</g>
<path fill="#ECD516" d="M145.313,20.002c1.113,0.279,2.028,1.632,1,2.398c-1.026,0.768-1.356-0.165-1.367-1.048
	C144.938,20.47,144.483,19.694,145.313,20.002z"/>
<g>
	<path fill="#ECD516" d="M113.453,55.535c-1.729-0.561-2.345,0.515-1.216,1.713c1.132,1.197,0.146-0.602,0.379-0.979
		S114.284,55.805,113.453,55.535z"/>
</g>
<g>
	<path fill="#ECD516" d="M110.168,62.852c-1.468-1.07-2.388-0.242-1.688,1.25c0.701,1.489,0.328-0.525,0.666-0.812
		C109.483,63.001,110.875,63.368,110.168,62.852z"/>
</g>
<g>
	<path fill="#ECD516" d="M104.608,68.605c-1.062-1.477-2.195-0.976-1.993,0.66c0.202,1.637,0.473-0.397,0.885-0.563
		C103.912,68.534,105.119,69.314,104.608,68.605z"/>
</g>
<g>
	<path fill="#ECD516" d="M98.981,71.913c-0.549-1.736-1.78-1.61-2.1,0.006c-0.318,1.616,0.574-0.231,1.018-0.261
		C98.342,71.626,99.247,72.744,98.981,71.913z"/>
</g>
<g>
	<path fill="#ECD516" d="M92.801,74.43c0.019-1.818-1.19-2.085-1.997-0.647c-0.807,1.436,0.618-0.04,1.047,0.067
		C92.282,73.959,92.792,75.303,92.801,74.43z"/>
</g>
<g>
	<path fill="#ECD516" d="M87.045,73.917c0.019-1.819-1.188-2.086-1.995-0.647c-0.807,1.436,0.616-0.043,1.047,0.066
		C86.528,73.445,87.038,74.79,87.045,73.917z"/>
</g>
<g>
	<path fill="#ECD516" d="M142.604,27.849c-0.977,0.448-1.027,0.767-1.285,1.279c-0.258,0.513-0.387-0.414,0.033-1
		C141.774,27.54,142.994,27.621,142.604,27.849z"/>
</g>
<g>
	<path fill="#ECD516" d="M138.994,31.577c-0.978,0.447-1.028,0.765-1.287,1.278c-0.257,0.513-0.386-0.414,0.034-1.001
		C138.161,31.266,139.382,31.347,138.994,31.577z"/>
</g>
<g>
	<path fill="#ECD516" d="M134.942,35.333c-1.004,0.383-1.075,0.697-1.367,1.192c-0.29,0.492-0.359-0.439,0.099-0.997
		C134.133,34.969,135.345,35.131,134.942,35.333z"/>
</g>
<g>
	<path fill="#ECD516" d="M130.884,38.624c-1.003,0.383-1.074,0.697-1.367,1.192c-0.289,0.494-0.358-0.439,0.101-0.997
		C130.075,38.259,131.287,38.421,130.884,38.624z"/>
</g>
<g>
	<path fill="#ECD516" d="M126.438,43.2c-0.951,0.501-0.986,0.823-1.215,1.348c-0.229,0.524-0.41-0.394-0.021-1.001
		C125.592,42.939,126.813,42.953,126.438,43.2z"/>
</g>
<g>
	<path fill="#ECD516" d="M121.896,47.993c-0.951,0.499-0.985,0.819-1.215,1.346s-0.408-0.392-0.021-1.001
		C121.049,47.729,122.271,47.745,121.896,47.993z"/>
</g>
<g>
	<path fill="#ECD516" d="M114.956,57.785c-0.739,0.781-0.666,1.095-0.712,1.666c-0.048,0.572-0.515-0.239-0.345-0.94
		C114.069,57.809,115.231,57.427,114.956,57.785z"/>
</g>
<path fill="#ECD516" d="M117.438,51.615c0.285,0.41,0.44,1.176,0.236,1.271C117.472,52.979,117.006,51.32,117.438,51.615z"/>
<g>
	<path fill="#ECD516" d="M112.296,65.405c-0.801,0.718-0.753,1.038-0.848,1.604c-0.096,0.566-0.492-0.28-0.266-0.966
		C111.41,65.357,112.599,65.072,112.296,65.405z"/>
</g>
<g>
	<path fill="#ECD516" d="M105.726,72c-0.994,0.405-1.059,0.723-1.338,1.223c-0.281,0.502-0.369-0.431,0.077-0.998
		C104.911,71.655,106.125,71.79,105.726,72z"/>
</g>
<g>
	<path fill="#ECD516" d="M99.75,76.383c-1.069,0.109-1.222,0.396-1.631,0.797c-0.406,0.403-0.229-0.515,0.354-0.937
		C99.063,75.824,100.19,76.293,99.75,76.383z"/>
</g>
<g>
	<path fill="#ECD516" d="M93.801,78.184c-1.01-0.369-1.271-0.177-1.812,0.008c-0.543,0.184,0.015-0.566,0.726-0.69
		S94.239,78.292,93.801,78.184z"/>
</g>
<path fill="#ECD516" d="M85.511,76.116c-0.309-0.351-0.08-0.604,0.354-0.408C86.3,75.902,85.802,76.426,85.511,76.116z"/>
<path fill="#ECD516" d="M146.922,24.586c-0.345,0.75-1.058,0.486-0.599-0.021C146.781,24.062,147.3,24.119,146.922,24.586z"/>
<path d="M82.312,73.583c0.565-0.042,1.097-4.343,0.746-7.497c-0.348-3.156,1.668-10.406,0.735-16.814
	c-0.933-6.407-2.862-6.588-3.765-10.854c-0.791-3.747,0.621-5.682-0.564-10.638c-1.814-7.592-8.39-7.265-8.39-7.265
	s-6.143,2.365-4.725,10.041c0.925,5.013,2.997,6.208,3.793,9.955c0.906,4.266-0.784,5.215,0.959,11.447
	c1.746,6.236,6.528,12.048,7.488,15.075C79.55,70.057,81.778,73.773,82.312,73.583z"/>
<g>
	<path d="M70.431,18.925C70.802,11.034,79.412,2.967,84.187,0c-4.588,3.321-13.028,10.937-13.399,18.828L70.431,18.925z"/>
</g>
<g>
	<path d="M70.431,18.925c-4.198-6.694-15.658-9.493-21.276-9.736c5.629,0.642,16.72,3.132,20.917,9.828L70.431,18.925z"/>
</g>
<g>
	<path d="M71.571,23.277c2.667-0.837,2.576-3.733,1.92-5.021c-0.759-1.492-2.453-1.732-3.596-0.985
		c-1.367-0.045-2.711,0.963-2.588,2.633C67.415,21.343,68.856,23.942,71.571,23.277z"/>
</g>
<path d="M70.278,18.219c2.03-1.113-0.063-3.15-0.891-2.91C68.568,15.572,67.976,18.432,70.278,18.219z"/>
<path fill="#007A48" d="M68.083,19.543c-0.491,0.257-0.41,0.981,0.027,1.276C68.402,21.02,68.408,19.373,68.083,19.543z"/>
<g>
	<path fill="#007A48" d="M70.286,20.092c-0.14,0.339,0.234,1.469,0.38,1.211C70.812,21.043,70.431,19.833,70.286,20.092z"/>
</g>
<g>
	<path fill="#007A48" d="M71.203,19.901c0.264,0.259,0.364,1.444,0.129,1.264C71.096,20.984,70.967,19.722,71.203,19.901z"/>
</g>
<path fill="#007A48" d="M69.202,15.935c-0.206-0.046-0.237,0.5-0.072,0.497C69.293,16.426,69.367,15.97,69.202,15.935z"/>
<path fill="#DC4228" d="M68.31,30.066c0.488,1.871,3.265,6.024,1.094,5.084c-2.17-0.941-3.56-8.085-2.158-8.825
	C67.776,26.046,67.823,28.196,68.31,30.066z"/>
<path fill="#DC4228" d="M72.706,51.477c0.868,2.938,1.915,5.873,4.725,11.637c-0.83-1.234-4.636-7.518-5.973-11.34
	c-1.335-3.825,0.066-9.59-0.614-12.083C72.06,42.172,71.837,48.537,72.706,51.477z"/>
<rect fill="none" width="148.967" height="84.047"/>
</svg>
